<?xml version="1.0" encoding="UTF-8" standalone="no"?>
<!DOCTYPE svg PUBLIC "-//W3C//DTD SVG 1.1//EN"
 "http://www.w3.org/Graphics/SVG/1.1/DTD/svg11.dtd">
<!-- Generated by graphviz version 9.0.0 (20230911.1827)
 -->
<!-- Title: G Pages: 1 -->
<svg width="148pt" height="105pt"
 viewBox="0.00 0.00 147.68 104.93" xmlns="http://www.w3.org/2000/svg" xmlns:xlink="http://www.w3.org/1999/xlink">
<g id="graph0" class="graph" transform="scale(1 1) rotate(0) translate(4 100.93)">
<title>G</title>
<polygon fill="white" stroke="none" points="-4,4 -4,-100.93 143.68,-100.93 143.68,4 -4,4"/>
<!-- 0 -->
<g id="node1" class="node">
<title>0</title>
<ellipse fill="none" stroke="orangered" stroke-width="0.1" cx="12.48" cy="-14.76" rx="12.48" ry="10.8"/>
<text text-anchor="middle" x="12.48" y="-13.01" font-family="monospace" font-size="5.00" fill="mediumslateblue">0</text>
</g>
<!-- 3 -->
<g id="node4" class="node">
<title>3</title>
<ellipse fill="none" stroke="orangered" stroke-width="0.1" cx="73.15" cy="-86.13" rx="12.48" ry="10.8"/>
<text text-anchor="middle" x="73.15" y="-84.38" font-family="monospace" font-size="5.00" fill="mediumslateblue">3</text>
</g>
<!-- 0&#45;&#45;3 -->
<g id="edge1" class="edge">
<title>0&#45;&#45;3</title>
<path fill="none" stroke="orange" stroke-width="0.05" d="M19.67,-23.23C31.35,-36.96 54.29,-63.95 65.96,-77.68"/>
<text text-anchor="middle" x="40.57" y="-51.15" font-family="monospace" font-size="4.00">28</text>
</g>
<!-- 1 -->
<g id="node2" class="node">
<title>1</title>
<ellipse fill="none" stroke="orangered" stroke-width="0.1" cx="36.41" cy="-64.81" rx="12.48" ry="10.8"/>
<text text-anchor="middle" x="36.41" y="-63.06" font-family="monospace" font-size="5.00" fill="mediumslateblue">1</text>
</g>
<!-- 1&#45;&#45;0 -->
<g id="edge2" class="edge">
<title>1&#45;&#45;0</title>
<path fill="none" stroke="orange" stroke-width="0.05" d="M31.8,-55.16C27.61,-46.41 21.47,-33.57 17.24,-24.72"/>
<text text-anchor="middle" x="22.27" y="-40.64" font-family="monospace" font-size="4.00">44</text>
</g>
<!-- 1&#45;&#45;3 -->
<g id="edge3" class="edge">
<title>1&#45;&#45;3</title>
<path fill="none" stroke="yellow" stroke-width="2" d="M46.45,-70.63C51.55,-73.59 57.74,-77.18 62.87,-80.16"/>
<text text-anchor="middle" x="52.41" y="-76.1" font-family="monospace" font-size="4.00">32</text>
</g>
<!-- 2 -->
<g id="node3" class="node">
<title>2</title>
<ellipse fill="none" stroke="orangered" stroke-width="0.1" cx="82.24" cy="-10.8" rx="12.48" ry="10.8"/>
<text text-anchor="middle" x="82.24" y="-9.05" font-family="monospace" font-size="5.00" fill="mediumslateblue">2</text>
</g>
<!-- 2&#45;&#45;0 -->
<g id="edge5" class="edge">
<title>2&#45;&#45;0</title>
<path fill="none" stroke="yellow" stroke-width="2" d="M70.09,-11.49C57.28,-12.22 37.24,-13.35 24.49,-14.08"/>
<text text-anchor="middle" x="45.04" y="-13.48" font-family="monospace" font-size="4.00">15</text>
</g>
<!-- 2&#45;&#45;1 -->
<g id="edge6" class="edge">
<title>2&#45;&#45;1</title>
<path fill="none" stroke="orange" stroke-width="0.05" d="M75.08,-19.24C66.52,-29.32 52.28,-46.11 43.67,-56.25"/>
<text text-anchor="middle" x="57.13" y="-38.44" font-family="monospace" font-size="4.00">32</text>
</g>
<!-- 2&#45;&#45;3 -->
<g id="edge4" class="edge">
<title>2&#45;&#45;3</title>
<path fill="none" stroke="yellow" stroke-width="2" d="M80.98,-21.27C79.24,-35.67 76.14,-61.4 74.41,-75.75"/>
<text text-anchor="middle" x="75.44" y="-49.21" font-family="monospace" font-size="4.00">22</text>
</g>
<!-- 4 -->
<g id="node5" class="node">
<title>4</title>
<ellipse fill="none" stroke="orangered" stroke-width="0.1" cx="127.21" cy="-62.18" rx="12.48" ry="10.8"/>
<text text-anchor="middle" x="127.21" y="-60.43" font-family="monospace" font-size="5.00" fill="mediumslateblue">4</text>
</g>
<!-- 3&#45;&#45;4 -->
<g id="edge7" class="edge">
<title>3&#45;&#45;4</title>
<path fill="none" stroke="yellow" stroke-width="2" d="M84.09,-81.29C93.47,-77.13 106.91,-71.17 116.28,-67.02"/>
<text text-anchor="middle" x="97.94" y="-74.85" font-family="monospace" font-size="4.00">24</text>
</g>
<!-- 4&#45;&#45;1 -->
<g id="edge8" class="edge">
<title>4&#45;&#45;1</title>
<path fill="none" stroke="orange" stroke-width="0.05" d="M114.96,-62.53C97.63,-63.03 66.13,-63.95 48.75,-64.45"/>
<text text-anchor="middle" x="79.61" y="-64.19" font-family="monospace" font-size="4.00">48</text>
</g>
<!-- 4&#45;&#45;2 -->
<g id="edge9" class="edge">
<title>4&#45;&#45;2</title>
<path fill="none" stroke="orange" stroke-width="0.05" d="M119.78,-53.69C111.4,-44.12 97.85,-28.64 89.53,-19.13"/>
<text text-anchor="middle" x="102.4" y="-37.11" font-family="monospace" font-size="4.00">31</text>
</g>
</g>
</svg>
