<?xml version="1.0" encoding="UTF-8" standalone="no"?>
<!DOCTYPE svg PUBLIC "-//W3C//DTD SVG 1.1//EN"
 "http://www.w3.org/Graphics/SVG/1.1/DTD/svg11.dtd">
<!-- Generated by graphviz version 9.0.0 (20230911.1827)
 -->
<!-- Title: G Pages: 1 -->
<svg width="143pt" height="105pt"
 viewBox="0.00 0.00 143.07 104.93" xmlns="http://www.w3.org/2000/svg" xmlns:xlink="http://www.w3.org/1999/xlink">
<g id="graph0" class="graph" transform="scale(1 1) rotate(0) translate(4 100.93)">
<title>G</title>
<polygon fill="white" stroke="none" points="-4,4 -4,-100.93 139.07,-100.93 139.07,4 -4,4"/>
<!-- 0 -->
<g id="node1" class="node">
<title>0</title>
<ellipse fill="none" stroke="orangered" stroke-width="0.1" cx="10.17" cy="-14.76" rx="10.17" ry="10.8"/>
<text text-anchor="middle" x="10.17" y="-13.41" font-family="monospace" font-size="3.00" fill="mediumslateblue">0</text>
</g>
<!-- 3 -->
<g id="node4" class="node">
<title>3</title>
<ellipse fill="none" stroke="orangered" stroke-width="0.1" cx="70.85" cy="-86.13" rx="10.17" ry="10.8"/>
<text text-anchor="middle" x="70.85" y="-84.78" font-family="monospace" font-size="3.00" fill="mediumslateblue">3</text>
</g>
<!-- 0&#45;&#45;3 -->
<g id="edge1" class="edge">
<title>0&#45;&#45;3</title>
<path fill="none" stroke="gray" stroke-width="0.1" d="M16.89,-22.67C28.62,-36.46 52.66,-64.74 64.27,-78.4"/>
<text text-anchor="middle" x="39.08" y="-50.89" font-family="monospace" font-size="2.00">28</text>
</g>
<!-- 1 -->
<g id="node2" class="node">
<title>1</title>
<ellipse fill="none" stroke="orangered" stroke-width="0.1" cx="34.1" cy="-64.81" rx="10.17" ry="10.8"/>
<text text-anchor="middle" x="34.1" y="-63.46" font-family="monospace" font-size="3.00" fill="mediumslateblue">1</text>
</g>
<!-- 1&#45;&#45;0 -->
<g id="edge2" class="edge">
<title>1&#45;&#45;0</title>
<path fill="none" stroke="gray" stroke-width="0.1" d="M29.71,-55.63C25.45,-46.71 19,-33.23 14.69,-24.22"/>
<text text-anchor="middle" x="20.7" y="-40.27" font-family="monospace" font-size="2.00">44</text>
</g>
<!-- 1&#45;&#45;3 -->
<g id="edge3" class="edge">
<title>1&#45;&#45;3</title>
<path fill="none" stroke="gray" stroke-width="0.1" d="M43,-69.97C48.77,-73.32 56.27,-77.67 62.03,-81.02"/>
<text text-anchor="middle" x="51.02" y="-75.84" font-family="monospace" font-size="2.00">32</text>
</g>
<!-- 2 -->
<g id="node3" class="node">
<title>2</title>
<ellipse fill="none" stroke="orangered" stroke-width="0.1" cx="79.93" cy="-10.8" rx="10.17" ry="10.8"/>
<text text-anchor="middle" x="79.93" y="-9.45" font-family="monospace" font-size="3.00" fill="mediumslateblue">2</text>
</g>
<!-- 2&#45;&#45;0 -->
<g id="edge5" class="edge">
<title>2&#45;&#45;0</title>
<path fill="none" stroke="gray" stroke-width="0.1" d="M69.94,-11.37C56.67,-12.12 33.4,-13.44 20.14,-14.19"/>
<text text-anchor="middle" x="43.54" y="-13.13" font-family="monospace" font-size="2.00">15</text>
</g>
<!-- 2&#45;&#45;1 -->
<g id="edge6" class="edge">
<title>2&#45;&#45;1</title>
<path fill="none" stroke="gray" stroke-width="0.1" d="M73.17,-18.77C64.51,-28.98 49.57,-46.58 40.89,-56.8"/>
<text text-anchor="middle" x="55.53" y="-38.14" font-family="monospace" font-size="2.00">32</text>
</g>
<!-- 2&#45;&#45;3 -->
<g id="edge4" class="edge">
<title>2&#45;&#45;3</title>
<path fill="none" stroke="gray" stroke-width="0.1" d="M78.67,-21.27C76.93,-35.67 73.83,-61.4 72.1,-75.75"/>
<text text-anchor="middle" x="73.88" y="-48.86" font-family="monospace" font-size="2.00">22</text>
</g>
<!-- 4 -->
<g id="node5" class="node">
<title>4</title>
<ellipse fill="none" stroke="orangered" stroke-width="0.1" cx="124.9" cy="-62.18" rx="10.17" ry="10.8"/>
<text text-anchor="middle" x="124.9" y="-60.83" font-family="monospace" font-size="3.00" fill="mediumslateblue">4</text>
</g>
<!-- 3&#45;&#45;4 -->
<g id="edge7" class="edge">
<title>3&#45;&#45;4</title>
<path fill="none" stroke="gray" stroke-width="0.1" d="M79.77,-82.18C89.73,-77.77 105.75,-70.67 115.78,-66.22"/>
<text text-anchor="middle" x="96.28" y="-74.55" font-family="monospace" font-size="2.00">24</text>
</g>
<!-- 4&#45;&#45;1 -->
<g id="edge8" class="edge">
<title>4&#45;&#45;1</title>
<path fill="none" stroke="gray" stroke-width="0.1" d="M114.84,-62.47C97.38,-62.97 61.7,-64.01 44.21,-64.51"/>
<text text-anchor="middle" x="78.02" y="-63.84" font-family="monospace" font-size="2.00">48</text>
</g>
<!-- 4&#45;&#45;2 -->
<g id="edge9" class="edge">
<title>4&#45;&#45;2</title>
<path fill="none" stroke="gray" stroke-width="0.1" d="M118.26,-54.6C109.76,-44.88 95.11,-28.14 86.6,-18.41"/>
<text text-anchor="middle" x="100.93" y="-36.85" font-family="monospace" font-size="2.00">31</text>
</g>
</g>
</svg>
